<svg
	xmlns="http://www.w3.org/2000/svg" viewBox="20 -17 101 101">
	<defs>
		<style>.cls-1{fill:#fff;}.cls-2{fill:#6dacdd}</style>
	</defs>
	<title>SW</title>
	<g id="Layer_2" data-name="Layer 2">
		<g id="Layer_3" data-name="Layer 3">
			<rect width="101" height="101" y="-17" x="20" class="cls-2"/>
		</g>
		<g id="Layer_1-2" data-name="Layer 1">
			<path class="cls-1" d="M56.24,33.42q3.32,3,3.31,8.75a12,12,0,0,1-3.74,9.18q-3.75,3.49-10.16,3.5a18.59,18.59,0,0,1-7.2-1.45,13.16,13.16,0,0,1-5.4-3.88v4.6H26.14v-14h6.19a12,12,0,0,0,4.32,6.37,12.25,12.25,0,0,0,7.64,2.41,6.88,6.88,0,0,0,4.5-1.33,4.62,4.62,0,0,0,1.62-3.78,4.74,4.74,0,0,0-1.7-4.07Q47,38.5,42.63,37.64L39,36.92q-6.48-1.31-9.79-4.43a11,11,0,0,1-3.32-8.39,11,11,0,0,1,3.68-8.71q3.66-3.24,9.79-3.24a18.13,18.13,0,0,1,6.8,1.19,12.89,12.89,0,0,1,4.93,3.35V12.94h6.48V24.82h-6a9.8,9.8,0,0,0-10.15-6.77,6.72,6.72,0,0,0-4.36,1.26,4.18,4.18,0,0,0-1.55,3.42,4.33,4.33,0,0,0,1.91,3.78,16.27,16.27,0,0,0,6.08,2.13l2.24.43Q52.93,30.44,56.24,33.42Z"/>
			<path class="cls-1" d="M68.91,54.12,57.25,19H53.07v-6H70.49v6H66.1l6.7,22.1L82.09,14h6.26l9.22,27.14L104.41,19H99.65v-6h16.71v6h-4.25L100.88,54.12h-6.7L84.89,27.77,75.68,54.12Z"/>
		</g>
	</g>
</svg>
