<svg xmlns="http://www.w3.org/2000/svg" viewBox="0 0 216 72"><defs><style>.cls-1{fill:#fff;}</style></defs><title>Asset 4</title><g id="Layer_2" data-name="Layer 2"><g id="Layer_3" data-name="Layer 3"><rect width="216" height="72"/></g><g id="Layer_1-2" data-name="Layer 1"><path class="cls-1" d="M56.24,33.42q3.32,3,3.31,8.75a12,12,0,0,1-3.74,9.18q-3.75,3.49-10.16,3.5a18.59,18.59,0,0,1-7.2-1.45,13.16,13.16,0,0,1-5.4-3.88v4.6H26.14v-14h6.19a12,12,0,0,0,4.32,6.37,12.25,12.25,0,0,0,7.64,2.41,6.88,6.88,0,0,0,4.5-1.33,4.62,4.62,0,0,0,1.62-3.78,4.74,4.74,0,0,0-1.7-4.07Q47,38.5,42.63,37.64L39,36.92q-6.48-1.31-9.79-4.43a11,11,0,0,1-3.32-8.39,11,11,0,0,1,3.68-8.71q3.66-3.24,9.79-3.24a18.13,18.13,0,0,1,6.8,1.19,12.89,12.89,0,0,1,4.93,3.35V12.94h6.48V24.82h-6a9.8,9.8,0,0,0-10.15-6.77,6.72,6.72,0,0,0-4.36,1.26,4.18,4.18,0,0,0-1.55,3.42,4.33,4.33,0,0,0,1.91,3.78,16.27,16.27,0,0,0,6.08,2.13l2.24.43Q52.93,30.44,56.24,33.42Z"/><path class="cls-1" d="M68.91,54.12,57.25,19H53.07v-6H70.49v6H66.1l6.7,22.1L82.09,14h6.26l9.22,27.14L104.41,19H99.65v-6h16.71v6h-4.25L100.88,54.12h-6.7L84.89,27.77,75.68,54.12Z"/><path class="cls-1" d="M104.4,64.21l20.52-53.43h7.28L111.68,64.21Z"/><path class="cls-1" d="M123.34,54.12V46h8.57v8.13Z"/><path class="cls-1" d="M157.36,39.76c1.66,1.37,2.48,3.47,2.48,6.3a7.63,7.63,0,0,1-3.06,6.48,12.24,12.24,0,0,1-7.59,2.31,17.42,17.42,0,0,1-5.22-.76A11.13,11.13,0,0,1,140,52v2.16h-5.76V44.55h5.33l.21,2.88a10.62,10.62,0,0,0,3.32,1.84,12,12,0,0,0,4,.68,6.34,6.34,0,0,0,3.45-.83,2.56,2.56,0,0,0,1.3-2.27,2.65,2.65,0,0,0-1.19-2.41A15.56,15.56,0,0,0,146.31,43l-3.1-.64c-3.22-.72-5.53-1.74-7-3.06a7.56,7.56,0,0,1-2.12-5.8,7.71,7.71,0,0,1,2.92-6.37,12,12,0,0,1,7.73-2.34,14.62,14.62,0,0,1,4.36.65,12.51,12.51,0,0,1,3.56,1.65V25.4h5.84v9.36h-5.33l-.43-3.32A8.09,8.09,0,0,0,150,30.08a11.7,11.7,0,0,0-3.31-.51,5.73,5.73,0,0,0-3.13.8,2.47,2.47,0,0,0-1.27,2.23,2.28,2.28,0,0,0,1,2,9.77,9.77,0,0,0,3.27,1.19l3.24.71A19,19,0,0,1,157.36,39.76Z"/><path class="cls-1" d="M192.51,48.73V34.61a9.84,9.84,0,0,0-2.63-7.16,9.34,9.34,0,0,0-7-2.7A18.19,18.19,0,0,0,173,28.06V12.22H160v5.33h4.18V48.73H164a11.61,11.61,0,0,1-3.45,5.39h16V48.73H173V33a12.9,12.9,0,0,1,6.41-2.09,4,4,0,0,1,3.24,1.37,5.72,5.72,0,0,1,1.15,3.81V48.73h-3.67v5.39h16.63V48.73Z"/></g></g></svg>